PathFileType	4	(x/y/z)	S06_M20_T14
DataRate	CameraRate	NumFrames	NumMarkers	Units	OrigDataRate	OrigDataStartFrame	OrigNumFrames
240	240	4	51	mm	240	367	488
Frame#	Time	Sternum			R.Acromium			L.Acromium			Top.Head			R.ASIS			L.ASIS			R.PSIS			L.PSIS			R.Great.Tro			L.Great.Tro			R.Iliac.Crest			L.Iliac.Crest			V.Sacral			R.Thigh.Upper.Post			R.Thigh.Lower.Ant			R.Thigh.Lower.Post			R.Thigh.Upper.Ant			R.Knee.Lat			R.Knee.Med			R.Shank.Upper.Post			R.Shank.Lower.Ant			R.Shank.Lower.Post			R.Shank.Upper.Ant			R.Ankle.Lat			R.Ankle.Med			R.Heel.Upper			R.Heel.Med			R.Heel.Lat			R.Toe.Lat			R.Toe.Med			R.Toe.Tip			L.Thigh.Upper.Post			L.Thigh.Lower.Ant			L.Thigh.Lower.Post			L.Thigh.Upper.Ant			L.Knee.Lat			L.Knee.Med			L.Shank.Upper.Post			L.Shank.Lower.Ant			L.Shank.Lower.Post			L.Shank.Upper.Ant			L.Ankle.Lat			L.Ankle.Med			L.Heel.Upper			L.Heel.Med			L.Heel.Lat			L.Toe.Lat			L.Toe.Med			L.Toe.Tip			Cervical.Spine			Back			
		X1	Y1	Z1	X2	Y2	Z2	X3	Y3	Z3	X4	Y4	Z4	X5	Y5	Z5	X6	Y6	Z6	X7	Y7	Z7	X8	Y8	Z8	X9	Y9	Z9	X10	Y10	Z10	X11	Y11	Z11	X12	Y12	Z12	X13	Y13	Z13	X14	Y14	Z14	X15	Y15	Z15	X16	Y16	Z16	X17	Y17	Z17	X18	Y18	Z18	X19	Y19	Z19	X20	Y20	Z20	X21	Y21	Z21	X22	Y22	Z22	X23	Y23	Z23	X24	Y24	Z24	X25	Y25	Z25	X26	Y26	Z26	X27	Y27	Z27	X28	Y28	Z28	X29	Y29	Z29	X30	Y30	Z30	X31	Y31	Z31	X32	Y32	Z32	X33	Y33	Z33	X34	Y34	Z34	X35	Y35	Z35	X36	Y36	Z36	X37	Y37	Z37	X38	Y38	Z38	X39	Y39	Z39	X40	Y40	Z40	X41	Y41	Z41	X42	Y42	Z42	X43	Y43	Z43	X44	Y44	Z44	X45	Y45	Z45	X46	Y46	Z46	X47	Y47	Z47	X48	Y48	Z48	X49	Y49	Z49	X50	Y50	Z50	X51	Y51	Z51	

367	1.525	394.81	1289.9	338.06	259.36	1494.5	503.16	238.19	1479.9	152.2	272.63	1804.7	315.79	358.27	1042.6	467.03	376.63	1050.7	213.42	165.64	1059.9	365.67	168.4	1064.1	284.45	292.1	964.59	510.74	291.13	975.42	154.12	272.72	1115.8	495.55	301.6	1117.7	174.74	153.56	1027.9	327.9	268.89	716.56	515.52	324.2	631.59	501.75	255.29	628.73	503.51	341.91	720.99	510.67	255.17	519.39	500.35	287.79	509.94	375.72	59.496	406.99	490.37	46.776	320.04	467	-2.6592	364.14	471.69	108.26	363.11	485.62	-83.456	263.34	443.9	-66.021	249.59	357.89	-129.89	304.78	392.3	-153.76	290.61	358.07	-161.2	286.92	423	-126.15	112.42	455.12	-95.838	100.02	339.98	-66.02	39.387	383.79	396.27	721.05	184.15	450.45	654.63	253.36	389.35	632.72	207.47	450	746.1	225.36	391.93	539.97	226.66	407.79	555.61	347.33	370.58	308.04	245.25	440.81	253.7	254.35	372.11	237.15	266.1	435.21	323.43	239.15	432.1	104.08	274.44	438.65	127.24	361.62	358.09	70.604	324.57	364.21	44.171	357.13	363.39	44.76	295.16	542.25	46.585	254.91	561.59	50.587	372.85	632.52	68.617	319.06	192.23	1535.8	329.3	155.59	1257.9	338.44
368	1.5292	399.78	1290.4	338.05	264.31	1494.9	503.09	243.57	1480.5	152.08	277.9	1805.2	315.83	363.12	1043.1	466.75	381.66	1051.1	213.11	170.52	1060.3	365.17	173.36	1064.5	283.95	297.45	965.04	510.46	296.16	975.88	153.77	277.5	1116.2	495.16	306.67	1118.2	174.44	158.49	1028.3	327.34	277.73	716.73	515.84	333.83	632.36	501.78	264.94	628.72	504.02	350.66	721.92	510.35	265.89	519.58	500.92	297.68	510.27	375.97	70.06	407.71	491.69	57.044	320.89	467.97	7.6925	365.08	473.18	118.73	363.75	486.44	-73.687	264.84	445.25	-56.435	250.95	359.3	-120.99	305.65	393.42	-144.75	290.96	359.32	-151.99	287.61	424.29	-114.84	113.92	457.48	-84.678	101.01	342.36	-54.222	40.66	386.56	400.06	721.14	183.99	453.97	654.5	253.14	392.76	632.85	207.38	453.92	745.93	225.05	394.92	540.08	226.69	410.9	555.68	347.3	372.32	308.26	245.51	442.24	253.55	254.58	373.46	237.38	266.39	437.02	323.29	239.32	432.75	104.12	274.82	439.28	127.11	361.96	358.3	70.766	324.74	364.32	44.27	357.21	363.53	45.022	295.25	542.46	46.409	255.02	561.89	49.572	373.15	632.96	67.282	319.38	197.38	1536.4	329.18	160.54	1258.4	338.07
369	1.5333	404.72	1290.7	338.04	269.22	1495.3	503.02	248.91	1481.1	151.97	283.16	1805.7	315.89	367.94	1043.6	466.48	386.66	1051.5	212.81	175.37	1060.6	364.66	178.29	1064.9	283.44	302.77	965.52	510.19	301.17	976.34	153.43	282.23	1116.5	494.78	311.73	1118.7	174.14	163.4	1028.7	326.79	286.58	716.98	516.15	343.44	633.2	501.76	274.61	628.8	504.51	359.41	722.91	509.99	276.6	519.86	501.45	307.55	510.69	376.19	80.665	408.42	492.93	67.411	321.7	468.9	18.119	365.94	474.61	129.26	364.39	487.22	-63.786	266.2	446.56	-46.694	252.17	360.68	-112.04	306.28	394.49	-135.66	291.02	360.53	-142.69	288.03	425.53	-103.15	115.27	459.88	-73.126	101.86	344.78	-41.934	41.95	389.39	403.79	721.24	183.86	457.42	654.36	252.95	396.12	632.99	207.31	457.79	745.76	224.77	397.81	540.18	226.72	413.9	555.72	347.28	373.98	308.48	245.79	443.61	253.4	254.81	374.75	237.61	266.72	438.76	323.14	239.5	433.37	104.16	275.2	439.89	126.98	362.3	358.5	70.925	324.92	364.42	44.365	357.3	363.67	45.283	295.35	542.65	46.267	255.11	562.19	48.616	373.43	633.36	66.023	319.67	202.51	1536.9	329.06	165.47	1259	337.68
370	1.5375	409.63	1291.1	338.05	274.09	1495.6	502.96	254.24	1481.8	151.86	288.43	1806.3	315.96	372.75	1044.1	466.23	391.62	1051.9	212.55	180.2	1061	364.16	183.19	1065.3	282.94	308.06	966.01	509.93	306.16	976.79	153.1	286.93	1116.9	494.41	316.77	1119.1	173.85	168.28	1029	326.23	295.43	717.3	516.45	353.05	634.12	501.69	284.28	628.96	504.98	368.15	723.96	509.58	287.29	520.23	501.92	317.41	511.18	376.36	91.311	409.09	494.09	77.878	322.47	469.8	28.62	366.73	475.97	139.85	365.04	487.95	-53.751	267.4	447.84	-36.792	253.23	362.05	-103.01	306.68	395.53	-126.46	290.81	361.71	-133.29	288.19	426.74	-91.131	116.47	462.31	-61.219	102.55	347.21	-29.207	43.234	392.25	407.46	721.33	183.76	460.79	654.21	252.76	399.42	633.13	207.26	461.63	745.57	224.51	400.61	540.27	226.77	416.81	555.76	347.28	375.56	308.69	246.09	444.9	253.26	255.03	375.98	237.84	267.05	440.41	323	239.68	433.95	104.22	275.59	440.47	126.86	362.64	358.7	71.083	325.1	364.52	44.457	357.39	363.8	45.54	295.45	542.82	46.156	255.21	562.47	47.721	373.69	633.74	64.839	319.94	207.62	1537.5	328.94	170.37	1259.6	337.28
